<?xml version="1.0" standalone="no"?>
<!DOCTYPE svg PUBLIC "-//W3C//DTD SVG 20010904//EN"
 "http://www.w3.org/TR/2001/REC-SVG-20010904/DTD/svg10.dtd">
<svg version="1.0" xmlns="http://www.w3.org/2000/svg"
 width="1024.000000pt" height="1024.000000pt" viewBox="0 0 1024.000000 1024.000000"
 preserveAspectRatio="xMidYMid meet">

<g transform="translate(0.000000,1024.000000) scale(0.100000,-0.100000)"
fill="#000000" stroke="none">
<path d="M3227 7590 c-131 -22 -264 -126 -328 -255 -33 -68 -34 -72 -34 -195
0 -120 1 -128 32 -192 31 -67 100 -150 157 -191 16 -11 58 -32 94 -47 l66 -26
3 -345 c5 -400 11 -439 93 -606 61 -123 166 -241 284 -318 l76 -49 0 -606 c0
-371 4 -630 11 -670 44 -278 242 -542 504 -673 318 -159 691 -135 986 63 92
62 216 193 273 288 60 100 111 248 126 362 8 59 10 391 7 1070 l-3 985 -23 80
c-94 330 -327 575 -646 678 -504 163 -1043 -128 -1202 -650 -25 -85 -27 -99
-32 -393 l-6 -305 -70 70 c-82 82 -136 177 -165 291 -18 69 -20 111 -20 404
l0 327 43 13 c127 38 226 123 285 247 36 76 37 81 37 193 0 109 -2 119 -32
183 -93 196 -300 303 -516 267z m207 -215 c93 -45 150 -134 149 -235 0 -77
-17 -123 -69 -180 -72 -80 -165 -106 -270 -75 -106 31 -194 146 -194 254 0
104 75 204 185 248 43 18 152 11 199 -12z m1363 -605 c253 -60 460 -251 550
-506 l28 -79 3 -512 3 -511 -761 0 -760 1 0 482 c0 446 1 487 20 559 25 97 49
151 104 234 182 274 506 406 813 332z"/>
<path d="M6369 6329 c-230 -33 -436 -185 -538 -394 -66 -134 -69 -161 -75
-625 -3 -228 -1 -435 3 -459 10 -51 41 -81 86 -81 17 0 107 24 200 52 l170 52
505 6 c492 6 507 7 575 29 263 87 441 274 506 532 28 109 23 289 -11 389 -89
263 -301 448 -570 496 -85 15 -753 18 -851 3z m864 -194 c188 -49 343 -204
391 -391 32 -123 17 -246 -43 -369 -63 -128 -164 -219 -306 -276 -60 -24 -61
-24 -565 -29 l-505 -5 -122 -38 c-67 -20 -127 -37 -133 -37 -8 0 -10 106 -8
373 4 356 5 375 26 431 59 158 180 275 344 330 73 25 73 25 468 26 319 0 407
-3 453 -15z"/>
<path d="M6307 5700 c-53 -42 -56 -130 -7 -175 25 -23 92 -31 130 -15 52 21
75 95 49 153 -25 55 -122 76 -172 37z"/>
<path d="M6721 5704 c-61 -43 -60 -147 2 -184 59 -36 141 -19 165 35 27 60 8
127 -45 154 -32 16 -95 13 -122 -5z"/>
<path d="M7127 5700 c-34 -27 -48 -79 -36 -126 18 -63 103 -93 168 -60 68 36
68 156 0 192 -41 21 -102 18 -132 -6z"/>
</g>
</svg>

